<svg width="1439" height="552" viewBox="0 0 1439 552" fill="none" xmlns="http://www.w3.org/2000/svg">
<rect width="1439" height="552" fill="#1F1F1F"/>
<path fill-rule="evenodd" clip-rule="evenodd" d="M0 552H58.4697C88.8072 532.055 109 496.518 109 456C109 393.592 61.0945 343 2 343C1.33189 343 0.665201 343.006 0 343.019V552Z" fill="white" fill-opacity="0.1"/>
<path fill-rule="evenodd" clip-rule="evenodd" d="M1439 552V375.259C1411.3 354.444 1376.2 342 1338 342C1248.53 342 1176 410.277 1176 494.5C1176 514.843 1180.23 534.255 1187.91 552H1439Z" fill="#999999" fill-opacity="0.12"/>
<path fill-rule="evenodd" clip-rule="evenodd" d="M709.952 0C704.821 11.4444 702 23.9293 702 37C702 92.2285 752.368 137 814.5 137C876.632 137 927 92.2285 927 37C927 23.9293 924.179 11.4444 919.048 0H709.952Z" fill="#DADADA" fill-opacity="0.1"/>
</svg>
